<mxfile host="app.diagrams.net" modified="2024-07-22T19:31:41.892Z" agent="Mozilla/5.0 (Windows NT 10.0; Win64; x64) AppleWebKit/537.36 (KHTML, like Gecko) Chrome/126.0.0.0 Safari/537.36" etag="iKq_5brIXIfn5HUH_Mfz" version="24.7.1" type="device">
  <diagram name="1 oldal" id="9zP5NQaTRb3VvkxQUBD1">
    <mxGraphModel dx="1185" dy="674" grid="1" gridSize="10" guides="1" tooltips="1" connect="1" arrows="1" fold="1" page="1" pageScale="1" pageWidth="827" pageHeight="1169" math="0" shadow="0">
      <root>
        <mxCell id="0" />
        <mxCell id="1" parent="0" />
        <mxCell id="ECaS3ncBVew-c8PPRQai-16" style="edgeStyle=orthogonalEdgeStyle;rounded=0;orthogonalLoop=1;jettySize=auto;html=1;exitX=0.5;exitY=0;exitDx=0;exitDy=0;entryX=0.5;entryY=0;entryDx=0;entryDy=0;strokeWidth=3;" edge="1" parent="1" source="ECaS3ncBVew-c8PPRQai-2" target="ECaS3ncBVew-c8PPRQai-1">
          <mxGeometry relative="1" as="geometry">
            <Array as="points">
              <mxPoint x="580" y="40" />
              <mxPoint x="180" y="40" />
            </Array>
          </mxGeometry>
        </mxCell>
        <mxCell id="ECaS3ncBVew-c8PPRQai-2" value="Modul 2." style="rounded=0;whiteSpace=wrap;html=1;verticalAlign=top;fillColor=#fff2cc;strokeColor=#d6b656;fontSize=36;fontStyle=1" vertex="1" parent="1">
          <mxGeometry x="390" y="90" width="380" height="180" as="geometry" />
        </mxCell>
        <mxCell id="ECaS3ncBVew-c8PPRQai-17" style="edgeStyle=orthogonalEdgeStyle;rounded=0;orthogonalLoop=1;jettySize=auto;html=1;exitX=0.5;exitY=1;exitDx=0;exitDy=0;entryX=0.5;entryY=1;entryDx=0;entryDy=0;strokeWidth=3;" edge="1" parent="1" source="ECaS3ncBVew-c8PPRQai-1" target="ECaS3ncBVew-c8PPRQai-5">
          <mxGeometry relative="1" as="geometry">
            <Array as="points">
              <mxPoint x="180" y="320" />
              <mxPoint x="670" y="320" />
            </Array>
          </mxGeometry>
        </mxCell>
        <mxCell id="ECaS3ncBVew-c8PPRQai-1" value="Modul 1." style="rounded=0;whiteSpace=wrap;html=1;verticalAlign=top;fillColor=#fff2cc;strokeColor=#d6b656;fontSize=36;fontStyle=1" vertex="1" parent="1">
          <mxGeometry x="80" y="90" width="200" height="180" as="geometry" />
        </mxCell>
        <mxCell id="ECaS3ncBVew-c8PPRQai-4" value="API" style="rounded=0;whiteSpace=wrap;html=1;fillColor=#ffe6cc;strokeColor=#d79b00;fontSize=36;fontStyle=1" vertex="1" parent="1">
          <mxGeometry x="414" y="170" width="156" height="80" as="geometry" />
        </mxCell>
        <mxCell id="ECaS3ncBVew-c8PPRQai-5" value="&lt;font style=&quot;font-size: 36px;&quot;&gt;Internal&lt;/font&gt;" style="rounded=0;whiteSpace=wrap;html=1;fillColor=#ffe6cc;strokeColor=#d79b00;fontStyle=1" vertex="1" parent="1">
          <mxGeometry x="590" y="170" width="160" height="80" as="geometry" />
        </mxCell>
        <mxCell id="ECaS3ncBVew-c8PPRQai-8" value="" style="verticalLabelPosition=bottom;verticalAlign=top;html=1;shape=mxgraph.basic.x;fillColor=#f8cecc;strokeColor=#b85450;" vertex="1" parent="1">
          <mxGeometry x="320" y="300" width="40" height="30" as="geometry" />
        </mxCell>
        <mxCell id="ECaS3ncBVew-c8PPRQai-13" value="" style="verticalLabelPosition=bottom;verticalAlign=top;html=1;shape=mxgraph.basic.x;fillColor=#f8cecc;strokeColor=#b85450;" vertex="1" parent="1">
          <mxGeometry x="320" y="20" width="40" height="30" as="geometry" />
        </mxCell>
        <mxCell id="ECaS3ncBVew-c8PPRQai-19" style="edgeStyle=orthogonalEdgeStyle;rounded=0;orthogonalLoop=1;jettySize=auto;html=1;exitX=1.003;exitY=0.663;exitDx=0;exitDy=0;entryX=0;entryY=0.5;entryDx=0;entryDy=0;exitPerimeter=0;strokeWidth=3;" edge="1" parent="1" source="ECaS3ncBVew-c8PPRQai-1" target="ECaS3ncBVew-c8PPRQai-4">
          <mxGeometry relative="1" as="geometry" />
        </mxCell>
      </root>
    </mxGraphModel>
  </diagram>
</mxfile>
